<svg width="10" height="10" viewBox="0 0 10 10" fill="none" xmlns="http://www.w3.org/2000/svg">
<g clip-path="url(#clip0_2003_195)">
<path d="M1.14801 7.42063C1.02896 7.42063 0.949598 7.3413 0.949598 7.22225C0.949598 5.0794 2.69562 3.33336 4.83849 3.33336C4.95754 3.33336 5.03687 3.41272 5.03687 3.53177C5.03687 3.65082 4.95754 3.73018 4.83849 3.73018C2.93372 3.73018 1.34642 5.27778 1.34642 7.22225C1.34642 7.3413 1.26706 7.42063 1.14801 7.42063Z" fill="#FE8F17"/>
<path d="M4.84069 3.73028C4.72163 3.73028 4.64226 3.65092 4.64226 3.53187C4.64226 3.41282 4.72163 3.33345 4.84069 3.33345C6.42797 3.33345 7.73749 2.02393 7.73749 0.436635C7.73749 0.317587 7.81687 0.238222 7.93592 0.238222C8.05497 0.238222 8.1343 0.317587 8.1343 0.436635C8.1343 2.26203 6.66607 3.73028 4.84069 3.73028Z" fill="#FE8F17"/>
<path d="M7.89501 8.45251C7.85534 8.45251 7.77596 8.4128 7.7363 8.37313C7.65691 8.29375 7.65691 8.17471 7.7363 8.09537C8.76805 7.10328 9.32358 5.79376 9.32358 4.3652C9.32358 2.93664 8.80772 1.58743 7.81568 0.59537C7.7363 0.516003 7.7363 0.396957 7.81568 0.317592C7.89501 0.238227 8.01406 0.238227 8.09344 0.317592C9.20453 1.4287 9.7601 2.85727 9.7601 4.40489C9.7601 5.91281 9.1252 7.34137 8.05377 8.4128C8.01406 8.45251 7.93472 8.45251 7.89501 8.45251Z" fill="#FE8F17"/>
<path d="M4.72042 9.76202C4.68074 9.76202 4.68074 9.76202 4.64105 9.76202C3.37121 9.76202 2.18074 9.24611 1.30773 8.33345C1.22836 8.25407 1.22836 8.13502 1.30773 8.05564C1.38709 7.97631 1.50614 7.97631 1.5855 8.05564C2.37915 8.88897 3.49026 9.36516 4.64105 9.36516C5.83153 9.36516 6.90295 8.92868 7.73628 8.13502C7.81567 8.05564 7.93471 8.05564 8.01405 8.13502C8.09343 8.2144 8.09343 8.33345 8.01405 8.41278C7.14105 9.28583 5.95057 9.76202 4.72042 9.76202Z" fill="#FE8F17"/>
<path d="M0.435184 9.0477C0.395501 9.0477 0.355819 9.0477 0.316137 9.00803C0.236771 8.96836 0.197089 8.84932 0.276454 8.76994C1.26851 7.14294 2.8955 6.07151 4.80026 5.87313C4.91931 5.87313 4.99864 5.95247 4.99864 6.03185C4.99864 6.15089 4.91931 6.23027 4.83993 6.23027C3.05422 6.42866 1.54629 7.38103 0.593915 8.92865C0.55423 9.00803 0.514549 9.0477 0.435184 9.0477Z" fill="#FE8F17"/>
<path d="M7.45899 4.68266C7.41933 4.68266 7.37961 4.68266 7.33995 4.64298C7.26056 4.56362 7.2209 4.44457 7.30028 4.3652C7.33995 4.32552 7.37961 4.24616 7.41933 4.20647C7.45899 4.12711 7.57804 4.08743 7.69709 4.12711C7.77647 4.16679 7.81613 4.32552 7.77647 4.40489C7.73675 4.48425 7.69709 4.52394 7.65742 4.56362C7.57804 4.68266 7.49866 4.68266 7.45899 4.68266Z" fill="#FE8F17"/>
<path d="M5.71314 6.07154C5.63381 6.07154 5.55443 6.03187 5.51476 5.95249C5.47505 5.83345 5.51476 5.75411 5.63381 5.7144C5.75286 5.67473 5.83219 5.63507 5.95124 5.55568C6.03062 5.51602 6.14967 5.55568 6.22905 5.63506C6.26871 5.7144 6.22905 5.83345 6.14967 5.91283C6.03062 5.95249 5.91157 6.03187 5.79252 6.07154C5.79252 6.03187 5.75286 6.07154 5.71314 6.07154ZM6.70524 5.51602C6.66552 5.51602 6.58619 5.4763 6.54647 5.43664C6.46714 5.35726 6.50681 5.23821 6.58619 5.15888C6.66552 5.07949 6.78457 5.00011 6.86395 4.92078C6.94333 4.8414 7.06238 4.8414 7.14171 4.92078C7.22109 5.00011 7.22109 5.11916 7.14171 5.19854C7.06238 5.27792 6.94333 5.35726 6.86395 5.4763C6.78457 5.4763 6.7449 5.51602 6.70524 5.51602Z" fill="#FE8F17"/>
<path d="M4.80061 6.26994C4.68155 6.26994 4.60218 6.19056 4.60218 6.11123C4.60218 5.99218 4.68155 5.9128 4.76091 5.9128C4.84028 5.9128 4.87994 5.9128 4.95932 5.87313C5.07837 5.87313 5.15775 5.9128 5.19742 6.03185C5.23708 6.15089 5.15775 6.23028 5.0387 6.26994C4.95932 6.26994 4.91966 6.26994 4.80061 6.26994C4.84028 6.26994 4.84028 6.26994 4.80061 6.26994Z" fill="#FE8F17"/>
<path d="M1.46547 8.37302C1.42579 8.37302 1.34642 8.3333 1.30674 8.29364C0.989279 7.97621 0.949598 7.46031 0.949598 7.22221V7.18254C0.949598 7.0635 1.06865 6.98412 1.14801 6.98412C1.26706 6.98412 1.34642 7.10316 1.34642 7.18254C1.34642 7.30159 1.34642 7.73811 1.58452 8.01588C1.66388 8.09526 1.66388 8.21426 1.58452 8.29364C1.54483 8.37302 1.50515 8.37302 1.46547 8.37302Z" fill="#FE8F17"/>
</g>
<defs>
<clipPath id="clip0_2003_195">
<rect width="9.04167" height="9.04167" fill="white" transform="scale(1.10599)"/>
</clipPath>
</defs>
</svg>
