<svg width="10" height="10" viewBox="0 0 10 10" fill="none" xmlns="http://www.w3.org/2000/svg">
<g clip-path="url(#clip0_2003_181)">
<path d="M2.57939 8.73025C1.98416 8.73025 1.50797 8.25406 1.50797 7.65882C1.50797 7.06358 1.98416 6.58739 2.57939 6.58739C3.17463 6.58739 3.65082 7.06358 3.65082 7.65882C3.65082 8.25406 3.17463 8.73025 2.57939 8.73025ZM2.57939 6.9842C2.22225 6.9842 1.90479 7.30168 1.90479 7.65882C1.90479 8.01596 2.22225 8.33339 2.57939 8.33339C2.93654 8.33339 3.25399 8.01596 3.25399 7.65882C3.25399 7.30168 2.97622 6.9842 2.57939 6.9842Z" fill="#FE8F17"/>
<path d="M7.30236 8.73025C6.70713 8.73025 6.23094 8.25406 6.23094 7.65882C6.23094 7.06358 6.70713 6.58739 7.30236 6.58739C7.8976 6.58739 8.37379 7.06358 8.37379 7.65882C8.37379 8.25406 7.8976 8.73025 7.30236 8.73025ZM7.30236 6.9842C6.94522 6.9842 6.62775 7.30168 6.62775 7.65882C6.62775 8.01596 6.94522 8.33339 7.30236 8.33339C7.65951 8.33339 7.97694 8.01596 7.97694 7.65882C7.97694 7.30168 7.65951 6.9842 7.30236 6.9842Z" fill="#FE8F17"/>
<path d="M4.16652 4.56355H1.58716V4.96037H4.16652V4.56355Z" fill="#FE8F17"/>
<path d="M4.40507 2.77786H4.00825V4.68262H4.40507V2.77786Z" fill="#FE8F17"/>
<path d="M1.46694 6.42859H1.26853C1.14948 6.42859 1.07012 6.34921 1.07012 6.23016V5.91269C1.07012 5.79364 1.14948 5.7143 1.26853 5.7143H1.46694C1.58599 5.7143 1.66536 5.79364 1.66536 5.91269V6.23016C1.66536 6.34921 1.58599 6.42859 1.46694 6.42859Z" fill="#FE8F17"/>
<path d="M8.88902 7.7778H8.13502C8.01597 7.7778 7.93664 7.69842 7.93664 7.61909C7.89693 7.26195 7.61916 7.02385 7.26202 7.02385C6.90488 7.02385 6.62712 7.30162 6.5874 7.61909C6.5874 7.73814 6.50807 7.7778 6.38902 7.7778H3.41282C3.29377 7.7778 3.21441 7.69842 3.21441 7.61909C3.21441 7.26195 2.93663 6.98414 2.57949 6.98414C2.22235 6.98414 1.94457 7.26195 1.90489 7.57938C1.90489 7.69842 1.82552 7.7778 1.70647 7.7778H1.11123C0.833459 7.7778 0.595364 7.65876 0.436635 7.42066C0.277905 7.18257 0.277905 6.94447 0.317588 6.70638L0.476317 5.15876V5.11908C0.595364 4.80162 0.912825 4.56352 1.23028 4.56352H1.54774L2.30171 3.09527C2.42076 2.77781 2.69854 2.5794 3.05568 2.5794H4.20647C4.32552 2.5794 4.40488 2.65876 4.40488 2.77781V6.07148H4.00806V2.97622H3.09536C2.89695 2.97622 2.73822 3.09527 2.69854 3.254L1.8652 4.8413C1.82552 4.92066 1.74616 4.96035 1.70647 4.96035H1.26997C1.11123 4.96035 0.952506 5.0794 0.87314 5.23812L0.714412 6.78576C0.674731 6.98414 0.714412 7.10319 0.754092 7.22223C0.833459 7.30162 0.952506 7.381 1.11123 7.381H1.58742C1.70647 6.94447 2.14298 6.58733 2.61917 6.58733C3.09536 6.58733 3.53187 6.90481 3.65091 7.381H6.26998C6.38902 6.94447 6.8255 6.58733 7.30169 6.58733C7.77788 6.58733 8.2144 6.90481 8.33345 7.381H8.92868C9.16678 7.381 9.32549 7.18257 9.32549 6.98414V6.11114H9.72235V6.98414C9.72235 7.42066 9.32549 7.7778 8.88902 7.7778Z" fill="#FE8F17"/>
<path d="M4.20665 7.77788C4.08761 7.77788 4.00825 7.6985 4.00825 7.57945V1.46837C4.00825 1.34932 4.08761 1.26996 4.20665 1.26996H9.52411C9.64316 1.26996 9.7225 1.34932 9.7225 1.46837V6.07155C9.7225 6.1906 9.64316 6.26993 9.52411 6.26993C9.40507 6.26993 9.32569 6.1906 9.32569 6.07155V1.66678H4.40507V7.57945C4.40507 7.65883 4.3257 7.77788 4.20665 7.77788Z" fill="#FE8F17"/>
<path d="M9.7225 2.5794H4.00825V2.97622H9.7225V2.5794Z" fill="#FE8F17"/>
<path d="M9.7225 3.57151H4.00825V3.96833H9.7225V3.57151Z" fill="#FE8F17"/>
<path d="M9.7225 4.56355H4.00825V4.96037H9.7225V4.56355Z" fill="#FE8F17"/>
<path d="M9.7225 5.55559H4.00825V5.95244H9.7225V5.55559Z" fill="#FE8F17"/>
</g>
<defs>
<clipPath id="clip0_2003_181">
<rect width="9.04167" height="9.04167" fill="white" transform="scale(1.10599)"/>
</clipPath>
</defs>
</svg>
