<svg width="71" height="16" viewBox="0 0 71 16" fill="none" xmlns="http://www.w3.org/2000/svg">
<g clip-path="url(#clip0_2003_1476)">
<path fill-rule="evenodd" clip-rule="evenodd" d="M25.6772 5.7083C26.113 6.2353 26.3977 6.86651 26.5021 7.53696C26.5822 8.04493 26.5564 8.56351 26.4262 9.06142C26.296 9.55933 26.064 10.0262 25.7444 10.4339C25.581 10.6381 25.4176 10.8423 25.2612 11.0465C25.0402 11.324 24.9181 11.6648 24.9137 12.0167C24.9134 12.783 24.64 13.5251 24.1406 14.1149C23.6411 14.7047 22.9471 15.1052 22.1782 15.2472C22.0569 15.2851 21.9303 15.3046 21.8029 15.305H17.4964C17.3786 15.3031 17.2615 15.2847 17.1488 15.2506C16.3709 15.1184 15.6654 14.7215 15.1568 14.13C14.6481 13.5384 14.3689 12.7901 14.3683 12.0167C14.3638 11.6648 14.2417 11.324 14.0207 11.0465C13.8574 10.8389 13.6975 10.6381 13.5689 10.4815C12.9663 9.74069 12.6665 8.80691 12.7278 7.8617C12.7892 6.91644 13.2073 6.02735 13.9008 5.36723C14.5943 4.70711 15.5137 4.32321 16.4801 4.29011C17.4466 4.25701 18.3911 4.57713 19.13 5.18818C19.2707 5.3052 19.4494 5.36946 19.634 5.36946C19.8186 5.36946 19.9973 5.3052 20.138 5.18818C20.6682 4.75185 21.3074 4.46168 21.99 4.34746C22.6726 4.23324 23.374 4.2991 24.022 4.53826C24.67 4.77743 25.2413 5.18127 25.6772 5.7083ZM19.7307 12.2686C21.1827 12.2686 22.3597 11.0916 22.3597 9.63961C22.3597 8.18762 21.1827 7.01061 19.7307 7.01061C18.2788 7.01061 17.1017 8.18762 17.1017 9.63961C17.1017 11.0916 18.2788 12.2686 19.7307 12.2686Z" fill="#05A845"/>
<path d="M15.0632 6.95488C14.9659 6.95625 14.8705 6.92903 14.7891 6.87678C14.7078 6.82453 14.6443 6.74957 14.6069 6.66164C14.5695 6.57371 14.5599 6.47681 14.5792 6.38342C14.5986 6.29008 14.6461 6.20456 14.7156 6.13788C15.2194 5.65654 15.8956 5.38769 16.5994 5.38901C16.6666 5.38341 16.7341 5.39156 16.7979 5.41291C16.8616 5.43421 16.9201 5.4683 16.9697 5.51294C17.0193 5.55759 17.0589 5.6118 17.0861 5.67224C17.1131 5.73263 17.1271 5.7979 17.1271 5.86385C17.1271 5.92984 17.1131 5.99511 17.0861 6.0555C17.0589 6.1159 17.0193 6.17015 16.9697 6.2148C16.9201 6.2594 16.8616 6.29349 16.7979 6.31483C16.7341 6.33613 16.6666 6.34428 16.5994 6.33873C16.1503 6.3405 15.7193 6.51254 15.3968 6.81871C15.308 6.90495 15.1883 6.95383 15.0632 6.95488Z" fill="#015132"/>
<path d="M14.3953 8.50368C14.2663 8.50368 14.1425 8.45348 14.0513 8.3641C13.96 8.27476 13.9087 8.15351 13.9087 8.02712C13.9053 8.00341 13.9053 7.97933 13.9087 7.95562C13.9235 7.83524 13.9845 7.72487 14.0795 7.64704C14.1744 7.56917 14.2961 7.52971 14.4197 7.53667C14.5433 7.54359 14.6596 7.59643 14.7448 7.68441C14.8301 7.77238 14.8779 7.88885 14.8785 8.0101V8.03053C14.8775 8.15574 14.8263 8.27558 14.736 8.36414C14.6455 8.45267 14.5232 8.50282 14.3953 8.50368Z" fill="#015132"/>
<path d="M17.241 2.77372C17.087 2.30988 17.0591 1.81082 17.1605 1.33157C17.262 0.852323 17.4887 0.411499 17.8158 0.0577002C17.8335 0.0378074 17.8553 0.0223334 17.8796 0.0124327C17.9039 0.00253194 17.93 -0.00153988 17.956 0.000520766C18.3723 0.0603796 18.7681 0.225757 19.1085 0.482085C19.4488 0.738414 19.7233 1.07783 19.9078 1.47043C20.0922 1.86303 20.181 2.29676 20.1663 2.73343C20.1515 3.1701 20.0337 3.5963 19.8232 3.97448C19.6924 4.20192 19.6047 4.45326 19.5647 4.71495C19.5615 4.73716 19.5526 4.75805 19.5388 4.77534C19.525 4.79264 19.5069 4.80565 19.4865 4.81303C19.4661 4.8204 19.4442 4.82181 19.423 4.81712C19.4019 4.81243 19.3824 4.80183 19.3667 4.78645C19.1792 4.60662 18.9597 4.46677 18.7205 4.37474C18.3777 4.23415 18.068 4.01835 17.8127 3.74206C17.5574 3.46576 17.3624 3.13548 17.241 2.77372Z" fill="#015132"/>
<path d="M5.95442 11.2952H8.57568C8.48475 11.5299 8.36355 11.7493 8.21203 11.9534C8.07063 12.1575 7.89891 12.3361 7.69688 12.4892C7.49484 12.6321 7.25749 12.7443 6.98474 12.826C6.71202 12.8974 6.3989 12.9332 6.04535 12.9332C5.45947 12.9332 4.94435 12.8056 4.49988 12.5505C4.05543 12.2953 3.70694 11.9279 3.45442 11.4482C3.20189 10.9584 3.07563 10.3818 3.07563 9.71842C3.07563 9.04483 3.20694 8.47842 3.46957 8.0192C3.7423 7.55993 4.10089 7.21294 4.54534 6.97823C4.99988 6.74348 5.49988 6.62614 6.04535 6.62614C6.61103 6.62614 7.07062 6.75881 7.42416 7.02415C7.77771 7.28949 8.06052 7.61605 8.27266 8.00386L10.9545 6.70265C10.6111 6.2026 10.207 5.75867 9.74236 5.37086C9.27772 4.97285 8.7373 4.66154 8.12115 4.43704C7.51505 4.20231 6.82312 4.08495 6.04535 4.08495C5.18675 4.08495 4.38877 4.21762 3.65139 4.48296C2.91401 4.73809 2.27259 5.11571 1.72713 5.61576C1.18167 6.10566 0.757422 6.69755 0.454388 7.39153C0.151355 8.08551 -0.000161296 8.86114 -0.000161296 9.71842C-0.000161296 10.5757 0.146305 11.3615 0.439237 12.0759C0.732167 12.7801 1.14126 13.3873 1.66652 13.8976C2.20188 14.3976 2.82815 14.7855 3.54533 15.061C4.2726 15.3366 5.06555 15.4743 5.92415 15.4743C6.85343 15.4743 7.67667 15.311 8.39386 14.9845C9.11105 14.6477 9.70699 14.1884 10.1817 13.6067C10.6565 13.025 11.005 12.3463 11.2272 11.5707C11.4495 10.7951 11.5252 9.96842 11.4545 9.09075H5.95442V11.2952Z" fill="#05A845"/>
<path d="M61.143 2.59426H64.09V15.0193H61.143V2.59426ZM66.7342 7.69169H70.3821L67.2758 10.7183L70.7007 15.0193H67.1166L63.628 10.7183L66.7342 7.69169Z" fill="#05A845"/>
<path d="M56.8112 11.3553C56.8112 11.6739 56.8856 11.9447 57.0343 12.1677C57.1829 12.3801 57.3794 12.5447 57.6236 12.6616C57.8785 12.7678 58.1493 12.8209 58.436 12.8209C58.6697 12.8209 58.898 12.789 59.121 12.7253C59.3546 12.6616 59.5777 12.5607 59.7901 12.4226C60.0024 12.2846 60.1883 12.104 60.3476 11.881V14.6846C60.0927 14.8227 59.8007 14.9395 59.4715 15.0351C59.1529 15.1306 58.7015 15.1784 58.1175 15.1784C57.2466 15.1784 56.4714 15.0244 55.7918 14.7165C55.1121 14.4085 54.5758 13.9678 54.1829 13.3943C53.8006 12.8209 53.6094 12.1412 53.6094 11.3553C53.6094 10.5589 53.8006 9.87921 54.1829 9.31636C54.5758 8.7429 55.1121 8.30219 55.7918 7.99422C56.4714 7.68625 57.2466 7.53226 58.1175 7.53226C58.7015 7.53226 59.1529 7.58005 59.4715 7.67563C59.8007 7.77121 60.0927 7.8774 60.3476 7.99422V10.8137C60.1883 10.5801 59.9918 10.3996 59.7582 10.2721C59.5246 10.1341 59.2909 10.0385 59.0573 9.9854C58.8237 9.92169 58.6166 9.88983 58.436 9.88983C58.1493 9.88983 57.8785 9.95885 57.6236 10.0969C57.3794 10.2243 57.1829 10.3996 57.0343 10.6226C56.8856 10.835 56.8112 11.0792 56.8112 11.3553Z" fill="#05A845"/>
<path d="M49.9269 5.11108C49.9269 4.64382 50.0915 4.26682 50.4207 3.98009C50.7605 3.69336 51.1694 3.54999 51.6473 3.54999C52.1251 3.54999 52.5287 3.69336 52.8579 3.98009C53.1977 4.26682 53.3676 4.64382 53.3676 5.11108C53.3676 5.57835 53.1977 5.95535 52.8579 6.24208C52.5287 6.52881 52.1251 6.67217 51.6473 6.67217C51.1694 6.67217 50.7605 6.52881 50.4207 6.24208C50.0915 5.95535 49.9269 5.57835 49.9269 5.11108ZM50.1499 7.69166H53.1287V15.0192H50.1499V7.69166Z" fill="#05A845"/>
<path d="M44.5838 12.1519C44.5838 12.4811 44.6316 12.7413 44.7272 12.9325C44.8228 13.113 45.0298 13.2033 45.3484 13.2033C45.5396 13.2033 45.6989 13.1661 45.8263 13.0917C45.9644 13.0174 46.0706 12.9059 46.1449 12.7572C46.2192 12.5979 46.2564 12.3962 46.2564 12.1519V7.69165H49.3627V15.0192H46.2564V13.9519C46.0546 14.3236 45.7679 14.6263 45.3962 14.8599C45.0351 15.0829 44.5679 15.1944 43.9944 15.1944C42.9962 15.1944 42.3006 14.9608 41.9077 14.4935C41.5147 14.0157 41.3183 13.3413 41.3183 12.4705V7.69165H44.5838V12.1519Z" fill="#05A845"/>
<path d="M31.0411 9.4439C31.0411 10.0917 31.1739 10.6439 31.4394 11.1006C31.7049 11.5572 32.0553 11.9077 32.4907 12.1519C32.9367 12.3855 33.4199 12.5024 33.9403 12.5024C34.4607 12.5024 34.912 12.4015 35.2943 12.1997C35.6872 11.9979 35.9899 11.7059 36.2023 11.3236C36.4147 10.9307 36.5209 10.4634 36.5209 9.92179C36.5209 9.36957 36.4147 8.8492 36.2023 8.3607C35.9899 7.87219 35.6713 7.47396 35.2465 7.16599C34.8217 6.85802 34.2801 6.70403 33.6217 6.70403C33.1013 6.70403 32.6447 6.82085 32.2518 7.05448C31.8695 7.27749 31.5721 7.59608 31.3597 8.01025C31.1473 8.4138 31.0411 8.89168 31.0411 9.4439ZM27.3296 9.4439C27.3296 8.55185 27.4888 7.74476 27.8074 7.02262C28.1366 6.30049 28.588 5.67924 29.1614 5.15887C29.7455 4.63851 30.4146 4.24027 31.1686 3.96416C31.9332 3.68805 32.7509 3.54999 33.6217 3.54999C34.5138 3.54999 35.3315 3.68805 36.0748 3.96416C36.8288 4.24027 37.4766 4.63851 38.0182 5.15887C38.5705 5.67924 38.9952 6.30049 39.2926 7.02262C39.6006 7.74476 39.7546 8.55185 39.7546 9.4439C39.7546 10.336 39.6059 11.1537 39.3085 11.897C39.0218 12.6298 38.6023 13.267 38.0501 13.8086C37.5085 14.3502 36.8607 14.7644 36.1067 15.0511C35.3633 15.3484 34.535 15.4971 33.6217 15.4971C32.7084 15.4971 31.8695 15.3484 31.1048 15.0511C30.3402 14.7644 29.6712 14.3502 29.0977 13.8086C28.5349 13.267 28.0995 12.6298 27.7915 11.897C27.4835 11.1537 27.3296 10.336 27.3296 9.4439ZM32.3155 10.2404H35.7403L41.4749 15.3378H37.8908L32.3155 10.2404Z" fill="#05A845"/>
</g>
<defs>
<clipPath id="clip0_2003_1476">
<rect width="70.525" height="15.3708" fill="white" transform="scale(1.00673)"/>
</clipPath>
</defs>
</svg>
