<svg width="16" height="16" viewBox="0 0 16 16" fill="none" xmlns="http://www.w3.org/2000/svg">
<path d="M13.12 7.12232H2.87999C2.79512 7.12232 2.71373 7.0886 2.65372 7.02859C2.59371 6.96858 2.55999 6.88719 2.55999 6.80232C2.55999 6.71745 2.59371 6.63606 2.65372 6.57605C2.71373 6.51603 2.79512 6.48232 2.87999 6.48232H13.12C13.2048 6.48232 13.2862 6.51603 13.3463 6.57605C13.4063 6.63606 13.44 6.71745 13.44 6.80232C13.44 6.88719 13.4063 6.96858 13.3463 7.02859C13.2862 7.0886 13.2048 7.12232 13.12 7.12232Z" fill="#1B1B1B"/>
<path d="M13.12 4.56231H2.87999C2.79512 4.56231 2.71373 4.5286 2.65372 4.46859C2.59371 4.40857 2.55999 4.32718 2.55999 4.24231C2.55999 4.15744 2.59371 4.07605 2.65372 4.01604C2.71373 3.95603 2.79512 3.92231 2.87999 3.92231H13.12C13.2048 3.92231 13.2862 3.95603 13.3463 4.01604C13.4063 4.07605 13.44 4.15744 13.44 4.24231C13.44 4.32718 13.4063 4.40857 13.3463 4.46859C13.2862 4.5286 13.2048 4.56231 13.12 4.56231Z" fill="#1B1B1B"/>
<path d="M7.35999 9.68233H2.87999C2.79512 9.68233 2.71373 9.64861 2.65372 9.5886C2.59371 9.52859 2.55999 9.4472 2.55999 9.36233C2.55999 9.27746 2.59371 9.19606 2.65372 9.13605C2.71373 9.07604 2.79512 9.04233 2.87999 9.04233H7.35999C7.44486 9.04233 7.52625 9.07604 7.58626 9.13605C7.64627 9.19606 7.67999 9.27746 7.67999 9.36233C7.67999 9.4472 7.64627 9.52859 7.58626 9.5886C7.52625 9.64861 7.44486 9.68233 7.35999 9.68233Z" fill="#1B1B1B"/>
<path d="M7.35999 12.2423H2.87999C2.79512 12.2423 2.71373 12.2086 2.65372 12.1486C2.59371 12.0886 2.55999 12.0072 2.55999 11.9223C2.55999 11.8375 2.59371 11.7561 2.65372 11.6961C2.71373 11.636 2.79512 11.6023 2.87999 11.6023H7.35999C7.44486 11.6023 7.52625 11.636 7.58626 11.6961C7.64627 11.7561 7.67999 11.8375 7.67999 11.9223C7.67999 12.0072 7.64627 12.0886 7.58626 12.1486C7.52625 12.2086 7.44486 12.2423 7.35999 12.2423Z" fill="#1B1B1B"/>
<path d="M13.1194 12.2423C13.0479 12.2423 12.9785 12.2184 12.9223 12.1744L11.5834 11.1287C11.5192 11.0756 11.4783 10.9996 11.4693 10.9168C11.4603 10.834 11.484 10.751 11.5352 10.6853C11.5864 10.6197 11.6612 10.5766 11.7437 10.5652C11.8262 10.5538 11.9099 10.575 11.977 10.6244L13.3178 11.6701C13.3704 11.7112 13.4088 11.7677 13.4277 11.8317C13.4466 11.8957 13.445 11.9641 13.4231 12.0271C13.4012 12.0902 13.3602 12.1448 13.3057 12.1834C13.2513 12.222 13.1861 12.2426 13.1194 12.2423Z" fill="#1B1B1B"/>
<path d="M10.6984 11.7304C10.3643 11.7304 10.0376 11.6313 9.75975 11.4457C9.4819 11.26 9.26534 10.9961 9.13746 10.6874C9.00958 10.3787 8.97612 10.0389 9.04131 9.71118C9.1065 9.38343 9.26742 9.08237 9.50372 8.84608C9.74001 8.60979 10.0411 8.44887 10.3688 8.38367C10.6966 8.31848 11.0363 8.35194 11.345 8.47982C11.6538 8.6077 11.9176 8.82426 12.1033 9.10212C12.2889 9.37997 12.388 9.70664 12.388 10.0408C12.3875 10.4888 12.2094 10.9182 11.8926 11.235C11.5759 11.5517 11.1464 11.7299 10.6984 11.7304ZM10.6984 8.99121C10.4909 8.99121 10.2879 9.05277 10.1153 9.1681C9.94271 9.28343 9.80818 9.44735 9.72874 9.63914C9.6493 9.83093 9.62851 10.042 9.66901 10.2456C9.70951 10.4492 9.80948 10.6362 9.95627 10.783C10.1031 10.9298 10.2901 11.0297 10.4937 11.0702C10.6973 11.1107 10.9083 11.09 11.1001 11.0105C11.2919 10.9311 11.4558 10.7965 11.5712 10.6239C11.6865 10.4513 11.748 10.2484 11.748 10.0408C11.7477 9.76254 11.637 9.49577 11.4402 9.299C11.2435 9.10224 10.9767 8.99155 10.6984 8.99121Z" fill="#1B1B1B"/>
</svg>
