<svg width="10" height="10" viewBox="0 0 10 10" fill="none" xmlns="http://www.w3.org/2000/svg">
<path d="M8.39325 7.80425L7.04196 6.45296C7.4515 5.91685 7.6761 5.26657 7.67619 4.58038C7.67619 3.75346 7.35413 2.97598 6.76931 2.39126C6.1846 1.80655 5.40722 1.48448 4.58019 1.48448C3.75327 1.48448 2.97578 1.80655 2.39107 2.39126C1.184 3.59843 1.184 5.56254 2.39107 6.76951C2.97578 7.35432 3.75327 7.67638 4.58019 7.67638C5.26638 7.6763 5.91665 7.45169 6.45277 7.04215L7.80406 8.39344C7.88534 8.47482 7.99205 8.51551 8.09866 8.51551C8.20527 8.51551 8.31197 8.47482 8.39325 8.39344C8.55601 8.23079 8.55601 7.96691 8.39325 7.80425ZM2.98026 6.18031C2.0981 5.29816 2.0982 3.86271 2.98026 2.98045C3.40761 2.55321 3.97584 2.31782 4.58019 2.31782C5.18464 2.31782 5.75278 2.55321 6.18012 2.98045C6.60747 3.4078 6.84286 3.97604 6.84286 4.58038C6.84286 5.18483 6.60747 5.75297 6.18012 6.18031C5.75278 6.60766 5.18464 6.84305 4.58019 6.84305C3.97584 6.84305 3.40761 6.60766 2.98026 6.18031Z" fill="white"/>
</svg>
