<svg width="12" height="12" viewBox="0 0 12 12" fill="none" xmlns="http://www.w3.org/2000/svg">
<g clip-path="url(#clip0_2003_87)">
<path d="M1.50346 9.00477C1.37429 9.00477 1.28818 8.9187 1.28818 8.78953C1.28818 6.46453 3.18262 4.57007 5.50764 4.57007C5.63681 4.57007 5.72288 4.65618 5.72288 4.78535C5.72288 4.91451 5.63681 5.00062 5.50764 5.00062C3.44095 5.00062 1.71873 6.67977 1.71873 8.78953C1.71873 8.9187 1.63262 9.00477 1.50346 9.00477Z" fill="#FE8F17"/>
<path d="M5.50643 5.00056C5.37725 5.00056 5.29114 4.91445 5.29114 4.78528C5.29114 4.65612 5.37725 4.57 5.50643 4.57C7.22864 4.57 8.64947 3.14917 8.64947 1.42695C8.64947 1.29778 8.7356 1.21167 8.86477 1.21167C8.99393 1.21167 9.08001 1.29778 9.08001 1.42695C9.08001 3.4075 7.48697 5.00056 5.50643 5.00056Z" fill="#FE8F17"/>
<path d="M8.82188 10.1241C8.77885 10.1241 8.69272 10.0811 8.64968 10.038C8.56355 9.95189 8.56355 9.82273 8.64968 9.73665C9.76914 8.66022 10.3719 7.23939 10.3719 5.68941C10.3719 4.13941 9.81218 2.67551 8.73581 1.59913C8.64968 1.51301 8.64968 1.38385 8.73581 1.29774C8.82188 1.21163 8.95105 1.21163 9.03718 1.29774C10.2427 2.50329 10.8455 4.05329 10.8455 5.73246C10.8455 7.36856 10.1566 8.91856 8.99414 10.0811C8.95105 10.1241 8.86497 10.1241 8.82188 10.1241Z" fill="#FE8F17"/>
<path d="M5.37811 11.5451C5.33506 11.5451 5.33506 11.5451 5.292 11.5451C3.91422 11.5451 2.62255 10.9854 1.67533 9.99513C1.58922 9.909 1.58922 9.77984 1.67533 9.69371C1.76145 9.60763 1.89061 9.60763 1.97672 9.69371C2.83783 10.5979 4.04339 11.1145 5.292 11.1145C6.58367 11.1145 7.74617 10.641 8.65033 9.77984C8.73646 9.69371 8.86563 9.69371 8.9517 9.77984C9.03783 9.86596 9.03783 9.99513 8.9517 10.0812C8.0045 11.0285 6.71283 11.5451 5.37811 11.5451Z" fill="#FE8F17"/>
<path d="M0.727614 10.7698C0.684558 10.7698 0.641503 10.7698 0.598447 10.7268C0.512336 10.6838 0.46928 10.5546 0.555391 10.4685C1.63178 8.70318 3.39706 7.54068 5.46374 7.32544C5.5929 7.32544 5.67898 7.41152 5.67898 7.49764C5.67898 7.62681 5.5929 7.71294 5.50677 7.71294C3.56928 7.92818 1.93317 8.96152 0.899838 10.6407C0.856779 10.7268 0.813725 10.7698 0.727614 10.7698Z" fill="#FE8F17"/>
<path d="M8.34883 6.03397C8.30579 6.03397 8.2627 6.03397 8.21966 5.99092C8.13354 5.90481 8.0905 5.77564 8.17662 5.68953C8.21966 5.64647 8.2627 5.56036 8.30579 5.51731C8.34883 5.4312 8.478 5.38814 8.60716 5.4312C8.69329 5.47425 8.73633 5.64647 8.69329 5.73259C8.6502 5.81869 8.60716 5.86175 8.56412 5.90481C8.478 6.03397 8.39187 6.03397 8.34883 6.03397Z" fill="#FE8F17"/>
<path d="M6.45403 7.54096C6.36795 7.54096 6.28182 7.49792 6.23879 7.41179C6.1957 7.28262 6.23879 7.19655 6.36795 7.15346C6.49712 7.11042 6.5832 7.06738 6.71236 6.98125C6.79849 6.93821 6.92766 6.98125 7.01379 7.06738C7.05682 7.15346 7.01379 7.28262 6.92766 7.36875C6.79849 7.41179 6.66932 7.49792 6.54016 7.54096C6.54016 7.49792 6.49712 7.54096 6.45403 7.54096ZM7.53045 6.93821C7.48736 6.93821 7.40129 6.89512 7.3582 6.85208C7.27212 6.76596 7.31516 6.63679 7.40129 6.55071C7.48736 6.46458 7.61653 6.37846 7.70266 6.29238C7.78879 6.20625 7.91795 6.20625 8.00403 6.29238C8.09016 6.37846 8.09016 6.50762 8.00403 6.59375C7.91795 6.67988 7.78879 6.76596 7.70266 6.89512C7.61653 6.89512 7.57349 6.93821 7.53045 6.93821Z" fill="#FE8F17"/>
<path d="M5.4642 7.75598C5.33501 7.75598 5.2489 7.66985 5.2489 7.58377C5.2489 7.45461 5.33501 7.36848 5.42113 7.36848C5.50723 7.36848 5.55027 7.36848 5.6364 7.32544C5.76557 7.32544 5.8517 7.36848 5.89473 7.49764C5.93777 7.62681 5.8517 7.71294 5.72253 7.75598C5.6364 7.75598 5.59336 7.75598 5.4642 7.75598C5.50723 7.75598 5.50723 7.75598 5.4642 7.75598Z" fill="#FE8F17"/>
<path d="M1.8479 10.0377C1.80484 10.0377 1.71873 9.99463 1.67568 9.95159C1.33123 9.60718 1.28818 9.04743 1.28818 8.7891V8.74606C1.28818 8.61689 1.41734 8.53076 1.50346 8.53076C1.63262 8.53076 1.71873 8.65993 1.71873 8.74606C1.71873 8.87522 1.71873 9.34885 1.97706 9.65022C2.06318 9.73635 2.06318 9.86547 1.97706 9.95159C1.93401 10.0377 1.89096 10.0377 1.8479 10.0377Z" fill="#FE8F17"/>
</g>
<defs>
<clipPath id="clip0_2003_87">
<rect width="10.85" height="10.85" fill="white" transform="translate(0.25293 0.953369)"/>
</clipPath>
</defs>
</svg>
