<svg width="11" height="12" viewBox="0 0 11 12" fill="none" xmlns="http://www.w3.org/2000/svg">
<g clip-path="url(#clip0_2003_99)">
<path d="M4.80204 11.5019C2.39093 11.5019 0.45343 9.56436 0.45343 7.15323V5.60325C0.45343 3.19214 2.39093 1.25464 4.80204 1.25464H6.35205C8.76313 1.25464 10.7006 3.19214 10.7006 5.60325V7.15323C10.7006 9.56436 8.76313 11.5019 6.35205 11.5019H4.80204ZM4.80204 1.6852C2.64926 1.6852 0.883985 3.45047 0.883985 5.60325V7.15323C0.883985 9.30602 2.64926 11.0713 4.80204 11.0713H6.35205C8.5048 11.0713 10.2701 9.30602 10.2701 7.15323V5.60325C10.2701 3.45047 8.5048 1.6852 6.35205 1.6852H4.80204Z" fill="#FE8F17"/>
<path d="M5.57624 6.72307C5.36094 6.72307 5.23178 6.55086 5.23178 6.37861C5.23178 6.16336 5.40398 6.03418 5.57624 6.03418C5.79148 6.03418 5.92065 6.2064 5.92065 6.37861C5.92065 6.5939 5.79148 6.72307 5.57624 6.72307ZM5.57624 6.29253C5.53315 6.29253 5.49011 6.33557 5.49011 6.37861C5.49011 6.46473 5.66231 6.46473 5.66231 6.37861C5.66231 6.33557 5.61928 6.29253 5.57624 6.29253Z" fill="#FE8F17"/>
<path d="M5.79168 2.76147H5.36115V3.36425H5.79168V2.76147Z" fill="#FE8F17"/>
<path d="M5.79168 9.34912H5.36115V9.95192H5.79168V9.34912Z" fill="#FE8F17"/>
<path d="M9.15007 6.16333H8.54727V6.59387H9.15007V6.16333Z" fill="#FE8F17"/>
<path d="M2.56302 6.16333H1.96024V6.59387H2.56302V6.16333Z" fill="#FE8F17"/>
<path d="M4.2679 3.69637L3.96832 3.17334L3.59473 3.38733L3.89431 3.91035L4.2679 3.69637Z" fill="#FE8F17"/>
<path d="M7.56098 9.37034L7.25997 8.84814L6.88693 9.06308L7.18794 9.58532L7.56098 9.37034Z" fill="#FE8F17"/>
<path d="M8.78245 4.77011L8.56803 4.39673L8.04532 4.69691L8.25974 5.07029L8.78245 4.77011Z" fill="#FE8F17"/>
<path d="M3.10828 8.06101L2.89287 7.68823L2.33371 8.01136L2.54912 8.38413L3.10828 8.06101Z" fill="#FE8F17"/>
<path d="M3.09958 4.71099L2.57793 4.40894L2.36218 4.78154L2.88382 5.08359L3.09958 4.71099Z" fill="#FE8F17"/>
<path d="M8.79385 7.97661L8.27176 7.67529L8.05652 8.04822L8.57861 8.34954L8.79385 7.97661Z" fill="#FE8F17"/>
<path d="M7.55009 3.37947L7.17731 3.16406L6.87573 3.68595L7.24851 3.90136L7.55009 3.37947Z" fill="#FE8F17"/>
<path d="M4.28034 9.07233L3.90696 8.85791L3.60678 9.38062L3.98016 9.59504L4.28034 9.07233Z" fill="#FE8F17"/>
<path d="M5.57644 6.59384C5.44727 6.59384 5.36115 6.50776 5.36115 6.3786V3.96747C5.36115 3.8383 5.44727 3.7522 5.57644 3.7522C5.70561 3.7522 5.79168 3.8383 5.79168 3.96747V6.3786C5.79168 6.50776 5.70561 6.59384 5.57644 6.59384Z" fill="#FE8F17"/>
<path d="M4.80176 6.16333H3.46704V6.59387H4.80176V6.16333Z" fill="#FE8F17"/>
</g>
<defs>
<clipPath id="clip0_2003_99">
<rect width="10.85" height="10.85" fill="white" transform="translate(0.152527 0.953369)"/>
</clipPath>
</defs>
</svg>
