<svg width="11" height="12" viewBox="0 0 11 12" fill="none" xmlns="http://www.w3.org/2000/svg">
<g clip-path="url(#clip0_2003_73)">
<path d="M2.79035 9.65142C2.14452 9.65142 1.62785 9.13475 1.62785 8.48892C1.62785 7.84308 2.14452 7.32642 2.79035 7.32642C3.43619 7.32642 3.95285 7.84308 3.95285 8.48892C3.95285 9.13475 3.43619 9.65142 2.79035 9.65142ZM2.79035 7.75695C2.40285 7.75695 2.05841 8.10142 2.05841 8.48892C2.05841 8.87642 2.40285 9.22083 2.79035 9.22083C3.17785 9.22083 3.52229 8.87642 3.52229 8.48892C3.52229 8.10142 3.22091 7.75695 2.79035 7.75695Z" fill="#FE8F17"/>
<path d="M7.91368 9.65142C7.26784 9.65142 6.75117 9.13475 6.75117 8.48892C6.75117 7.84308 7.26784 7.32642 7.91368 7.32642C8.55951 7.32642 9.07618 7.84308 9.07618 8.48892C9.07618 9.13475 8.55951 9.65142 7.91368 9.65142ZM7.91368 7.75695C7.52618 7.75695 7.18171 8.10142 7.18171 8.48892C7.18171 8.87642 7.52618 9.22083 7.91368 9.22083C8.30118 9.22083 8.64559 8.87642 8.64559 8.48892C8.64559 8.10142 8.30118 7.75695 7.91368 7.75695Z" fill="#FE8F17"/>
<path d="M4.51184 5.13086H1.71323V5.56141H4.51184V5.13086Z" fill="#FE8F17"/>
<path d="M4.77098 3.1936H4.34042V5.26027H4.77098V3.1936Z" fill="#FE8F17"/>
<path d="M1.58398 7.15465H1.36871C1.23954 7.15465 1.15343 7.06852 1.15343 6.93935V6.59489C1.15343 6.46573 1.23954 6.37964 1.36871 6.37964H1.58398C1.71315 6.37964 1.79926 6.46573 1.79926 6.59489V6.93935C1.79926 7.06852 1.71315 7.15465 1.58398 7.15465Z" fill="#FE8F17"/>
<path d="M9.63647 8.61806H8.81838C8.68921 8.61806 8.60314 8.53193 8.60314 8.44586C8.56005 8.05836 8.25868 7.80002 7.87118 7.80002C7.48368 7.80002 7.18231 8.1014 7.13921 8.44586C7.13921 8.57502 7.05314 8.61806 6.92397 8.61806H3.69478C3.56562 8.61806 3.47951 8.53193 3.47951 8.44586C3.47951 8.05836 3.17812 7.75693 2.79062 7.75693C2.40312 7.75693 2.10173 8.05836 2.05867 8.40277C2.05867 8.53193 1.97256 8.61806 1.84339 8.61806H1.19756C0.896172 8.61806 0.637839 8.48889 0.465617 8.23056C0.293395 7.97223 0.293395 7.7139 0.336451 7.45556L0.508673 5.77639V5.73334C0.637839 5.38889 0.982285 5.13056 1.32673 5.13056H1.67117L2.48923 3.5375C2.61839 3.19306 2.91978 2.97778 3.30728 2.97778H4.5559C4.68506 2.97778 4.77117 3.06389 4.77117 3.19306V6.76669H4.34062V3.40834H3.35034C3.13506 3.40834 2.96284 3.5375 2.91978 3.70972L2.01562 5.43195C1.97256 5.51806 1.88645 5.56112 1.84339 5.56112H1.36978C1.19756 5.56112 1.02534 5.69028 0.939226 5.8625L0.767005 7.54169C0.723952 7.75693 0.767005 7.8861 0.810059 8.01527C0.896172 8.1014 1.02534 8.18752 1.19756 8.18752H1.71423C1.84339 7.7139 2.31701 7.3264 2.83367 7.3264C3.35034 7.3264 3.82395 7.67086 3.95312 8.18752H6.79481C6.92397 7.7139 7.39755 7.3264 7.91422 7.3264C8.43088 7.3264 8.90451 7.67086 9.03368 8.18752H9.67951C9.93784 8.18752 10.11 7.97223 10.11 7.75693V6.80973H10.5406V7.75693C10.5406 8.23056 10.11 8.61806 9.63647 8.61806Z" fill="#FE8F17"/>
<path d="M4.5557 8.618C4.42653 8.618 4.34042 8.53187 4.34042 8.4027V1.77216C4.34042 1.643 4.42653 1.55688 4.5557 1.55688H10.3252C10.4543 1.55688 10.5404 1.643 10.5404 1.77216V6.76663C10.5404 6.89579 10.4543 6.98187 10.3252 6.98187C10.196 6.98187 10.1099 6.89579 10.1099 6.76663V1.98744H4.77098V8.4027C4.77098 8.48883 4.68486 8.618 4.5557 8.618Z" fill="#FE8F17"/>
<path d="M10.5404 2.97778H4.34042V3.40834H10.5404V2.97778Z" fill="#FE8F17"/>
<path d="M10.5404 4.0542H4.34042V4.48475H10.5404V4.0542Z" fill="#FE8F17"/>
<path d="M10.5404 5.13086H4.34042V5.56141H10.5404V5.13086Z" fill="#FE8F17"/>
<path d="M10.5404 6.20703H4.34042V6.63761H10.5404V6.20703Z" fill="#FE8F17"/>
</g>
<defs>
<clipPath id="clip0_2003_73">
<rect width="10.85" height="10.85" fill="white" transform="translate(-0.0088501 0.178955)"/>
</clipPath>
</defs>
</svg>
