<?xml version="1.0" ?><!DOCTYPE svg  PUBLIC '-//W3C//DTD SVG 1.1//EN'  'http://www.w3.org/Graphics/SVG/1.1/DTD/svg11.dtd'><svg id="Livello_1" style="enable-background:new 0 0 217.2 217.2;" version="1.1" viewBox="0 0 217.2 217.2" xml:space="preserve" xmlns="http://www.w3.org/2000/svg" xmlns:xlink="http://www.w3.org/1999/xlink"><style type="text/css">
	.st0{fill:#FFFFFF;}
	.st1{fill:#34A853;}
	.st2{fill:#5F6368;}
	.st3{fill:#4285F4;}
	.st4{fill:#FBBC04;}
	.st5{fill:#EA4335;}
</style><g><circle class="st0" cx="108.6" cy="108.6" r="108.6"/><path class="st1" d="M3.7,137c12.5,46.2,54.7,80.3,104.9,80.3c50.2,0,92.4-34,104.9-80.3H3.7z"/><path class="st0" d="M93.8,154.2l49.4,21l-49.4,21l0-16.6l35.2-4.6l-35.2-4.6V154.2z"/><g><g><path class="st2" d="M104.8,94.2v16.4h-5.3V70.1h13.7c3.3,0,6.5,1.2,9,3.5c2.5,2.1,3.7,5.3,3.7,8.6s-1.2,6.3-3.7,8.6     c-2.5,2.3-5.5,3.5-9,3.5L104.8,94.2L104.8,94.2z M104.8,75v14.1h8.8c1.9,0,3.9-0.7,5.1-2.1c2.8-2.6,2.8-7,0.2-9.7l-0.2-0.2     c-1.4-1.4-3.2-2.3-5.1-2.1H104.8L104.8,75z"/><path class="st2" d="M138,82.1c3.9,0,6.9,1.1,9.1,3.2s3.3,4.9,3.3,8.4v16.9h-4.9v-3.9h-0.2c-2.1,3.2-5.1,4.7-8.6,4.7     c-3,0-5.6-0.9-7.7-2.6c-1.9-1.8-3.2-4.2-3.2-6.9c0-2.8,1.1-5.1,3.2-6.9c2.1-1.8,5.1-2.5,8.6-2.5c3.2,0,5.6,0.5,7.6,1.8v-1.2     c0-1.8-0.7-3.5-2.1-4.6c-1.4-1.2-3.2-1.9-5.1-1.9c-3,0-5.3,1.2-6.9,3.7l-4.6-2.8C129.4,83.8,133.1,82.1,138,82.1z M131.3,102.1     c0,1.4,0.7,2.6,1.8,3.3c1.2,0.9,2.6,1.4,4,1.4c2.1,0,4.2-0.9,5.8-2.5c1.8-1.6,2.6-3.5,2.6-5.6c-1.6-1.2-3.9-1.9-6.9-1.9     c-2.1,0-3.9,0.5-5.3,1.6C132,99.3,131.3,100.5,131.3,102.1z"/><path class="st2" d="M179,83l-17.4,39.9h-5.3l6.5-13.9l-11.4-25.8h5.6l8.3,19.9h0.2l8.1-19.9h5.5V83z"/></g><g><path class="st3" d="M83.8,90.7c0-1.6-0.2-3.2-0.4-4.7h-22v9H74c-0.5,2.8-2.1,5.5-4.6,7v5.8H77C81.4,103.7,83.8,97.7,83.8,90.7z"/><path class="st1" d="M61.5,113.4c6.3,0,11.6-2.1,15.5-5.6l-7.6-5.8c-2.1,1.4-4.7,2.3-7.9,2.3c-6,0-11.3-4-13-9.7h-7.7v6     C44.8,108.4,52.7,113.4,61.5,113.4z"/><path class="st4" d="M48.5,94.6c-1.1-2.8-1.1-6,0-9v-6h-7.7c-3.3,6.5-3.3,14.2,0,20.9L48.5,94.6z"/><path class="st5" d="M61.5,76.1c3.3,0,6.5,1.2,9,3.5l0,0l6.7-6.7c-4.2-3.9-9.8-6.2-15.5-6c-8.8,0-16.9,4.9-20.7,12.8l7.7,6     C50.3,80.1,55.5,76.1,61.5,76.1z"/></g></g></g></svg>