<svg width="10" height="10" viewBox="0 0 10 10" fill="none" xmlns="http://www.w3.org/2000/svg">
<g clip-path="url(#clip0_2003_1512)">
<path fill-rule="evenodd" clip-rule="evenodd" d="M1.19592 0.903843C1.1508 0.865773 1.09367 0.844898 1.03464 0.844908H0.624562C0.417456 0.844908 0.249563 0.677019 0.249563 0.46991C0.249563 0.262804 0.417456 0.0949109 0.624562 0.0949109H1.03456C1.27066 0.0948799 1.49915 0.178384 1.67959 0.330643C1.86005 0.482919 1.98083 0.694249 2.0205 0.927013L2.19742 1.96698H9.06194C9.16639 1.96695 9.26954 1.99072 9.36344 2.03649C9.45739 2.08229 9.53969 2.1489 9.60399 2.23127C9.66834 2.31364 9.71304 2.40959 9.73474 2.51183C9.75644 2.61406 9.75454 2.71988 9.72919 2.82126L9.12499 5.2379C9.03709 5.5894 8.83419 5.9015 8.54859 6.1245C8.263 6.34745 7.9111 6.4686 7.54875 6.46865H2.96329L3.11927 7.38549C3.12915 7.44369 3.15933 7.49654 3.20445 7.53464C3.24956 7.57274 3.30675 7.59364 3.36581 7.59364H7.49955C7.70665 7.59364 7.87455 7.76154 7.87455 7.96864C7.87455 8.17574 7.70665 8.34364 7.49955 8.34364H3.36581C3.1296 8.34364 2.90101 8.26004 2.72054 8.10764C2.54007 7.95524 2.41937 7.74389 2.37985 7.51099L2.15024 6.1614C2.14971 6.15845 2.1492 6.1555 2.14873 6.15255L1.28112 1.0528C1.27119 0.994653 1.24101 0.941888 1.19592 0.903843ZM2.83569 5.71865L2.32502 2.71697H8.98214L8.3974 5.056C8.35005 5.24525 8.24079 5.41325 8.08705 5.53335C7.9333 5.6534 7.74375 5.7186 7.54865 5.71865H2.83569Z" fill="#1B1B1B"/>
<path fill-rule="evenodd" clip-rule="evenodd" d="M6.71814 8.53111C6.85904 8.53111 6.99414 8.58706 7.09379 8.68671C7.19344 8.78636 7.24939 8.92146 7.24939 9.06236C7.24939 9.16741 7.21824 9.27016 7.15984 9.35751C7.10149 9.44486 7.01849 9.51296 6.92144 9.55316C6.82439 9.59336 6.71754 9.60391 6.61449 9.58341C6.51144 9.56291 6.41679 9.51231 6.34249 9.43801C6.26819 9.36371 6.21759 9.26906 6.19709 9.16601C6.17659 9.06296 6.18714 8.95611 6.22734 8.85906C6.26754 8.76201 6.33564 8.67901 6.42299 8.62066C6.51034 8.56226 6.61309 8.53111 6.71814 8.53111ZM6.56344 9.21706C6.59429 9.24786 6.63334 9.26851 6.67544 9.27691C6.68944 9.27966 6.70369 9.28111 6.71814 9.28111C6.74699 9.28111 6.77544 9.27541 6.80184 9.26446C6.81504 9.25901 6.82769 9.25226 6.83969 9.24426C6.86369 9.22821 6.88414 9.20766 6.90004 9.18391C6.90794 9.17201 6.91474 9.15936 6.92024 9.14606C6.93129 9.11941 6.93689 9.09096 6.93689 9.06236C6.93689 9.04811 6.93549 9.03381 6.93269 9.01966C6.92424 8.97726 6.90339 8.93826 6.87284 8.90766C6.84224 8.87711 6.80324 8.85626 6.76084 8.84781C6.74669 8.84501 6.73239 8.84361 6.71814 8.84361C6.68954 8.84361 6.66109 8.84921 6.63444 8.86026C6.62114 8.86576 6.60849 8.87256 6.59659 8.88046C6.57284 8.89636 6.55229 8.91681 6.53624 8.94081C6.52824 8.95281 6.52149 8.96546 6.51604 8.97866C6.50509 9.00506 6.49939 9.03351 6.49939 9.06236C6.49939 9.07681 6.50084 9.09106 6.50359 9.10506C6.51199 9.14716 6.53264 9.18621 6.56344 9.21706Z" fill="#1B1B1B"/>
<path d="M3.59303 8.53111C3.73393 8.53111 3.86905 8.58706 3.96868 8.68671C4.06831 8.78636 4.12428 8.92146 4.12428 9.06236C4.12428 9.16741 4.09313 9.27016 4.03475 9.35751C3.97637 9.44486 3.8934 9.51296 3.79633 9.55316C3.69926 9.59336 3.59244 9.60391 3.48939 9.58341C3.38634 9.56291 3.29168 9.51231 3.21739 9.43801C3.14309 9.36371 3.09249 9.26906 3.072 9.16601C3.0515 9.06296 3.06202 8.95611 3.10223 8.85906C3.14244 8.76201 3.21053 8.67901 3.29789 8.62066C3.38526 8.56226 3.48796 8.53111 3.59303 8.53111Z" fill="#1B1B1B"/>
</g>
<defs>
<clipPath id="clip0_2003_1512">
<rect width="9.04167" height="9.04167" fill="white" transform="scale(1.10599)"/>
</clipPath>
</defs>
</svg>
