<svg width="13" height="13" viewBox="0 0 13 13" fill="none" xmlns="http://www.w3.org/2000/svg">
<path d="M10.9083 10.1456L9.15166 8.38889C9.68405 7.69194 9.97604 6.84657 9.97616 5.95453C9.97616 4.87952 9.55748 3.86879 8.79721 3.10866C8.03708 2.34853 7.02648 1.92985 5.95134 1.92985C4.87634 1.92985 3.86561 2.34853 3.10547 3.10866C1.53628 4.67799 1.53628 7.23133 3.10547 8.8004C3.86561 9.56066 4.87634 9.97934 5.95134 9.97934C6.84339 9.97923 7.68875 9.68723 8.3857 9.15484L10.1424 10.9115C10.248 11.0173 10.3868 11.0702 10.5254 11.0702C10.664 11.0702 10.8027 11.0173 10.9083 10.9115C11.1199 10.7001 11.1199 10.357 10.9083 10.1456ZM3.87143 8.03445C2.72461 6.88763 2.72475 5.02155 3.87143 3.87461C4.42698 3.31919 5.16569 3.01318 5.95134 3.01318C6.73713 3.01318 7.47571 3.31919 8.03126 3.87461C8.58681 4.43016 8.89282 5.16887 8.89282 5.95453C8.89282 6.74032 8.58681 7.47889 8.03126 8.03445C7.47571 8.59 6.73713 8.89601 5.95134 8.89601C5.16569 8.89601 4.42698 8.59 3.87143 8.03445Z" fill="white"/>
</svg>
