<svg width="10" height="10" viewBox="0 0 10 10" fill="none" xmlns="http://www.w3.org/2000/svg">
<g clip-path="url(#clip0_2003_1507)">
<path d="M4.99971 9.10152L1.00473 4.93486C0.653625 4.58403 0.421884 4.13156 0.342384 3.64162C0.262883 3.15168 0.339657 2.64914 0.561815 2.20529C0.729339 1.87034 0.974054 1.57999 1.27579 1.35816C1.57753 1.13633 1.92766 0.989373 2.29734 0.929396C2.66701 0.869418 3.04564 0.898137 3.40204 1.01319C3.75843 1.12824 4.08239 1.32632 4.34723 1.59112L4.99971 2.2432L5.65221 1.59112C5.91706 1.32632 6.24101 1.12824 6.59741 1.01319C6.95381 0.898137 7.33246 0.869418 7.70211 0.929396C8.0718 0.989373 8.4219 1.13633 8.72365 1.35816C9.0254 1.57999 9.2701 1.87034 9.43765 2.20529C9.6595 2.64897 9.73615 3.15121 9.6567 3.64087C9.5773 4.13053 9.34585 4.58279 8.99515 4.93361L4.99971 9.10152Z" stroke="#1B1B1B" stroke-width="0.678125" stroke-linecap="round" stroke-linejoin="round"/>
</g>
<defs>
<clipPath id="clip0_2003_1507">
<rect width="9.04167" height="9.04167" fill="white" transform="scale(1.10599)"/>
</clipPath>
</defs>
</svg>
